<mxfile host="app.diagrams.net" modified="2024-07-08T11:16:03.716Z" agent="Mozilla/5.0 (Macintosh; Intel Mac OS X 10_15_7) AppleWebKit/537.36 (KHTML, like Gecko) Chrome/125.0.0.0 Safari/537.36" etag="kWsw5buYyWJr8X7_EWLp" version="24.6.4" type="device">
  <diagram id="C5RBs43oDa-KdzZeNtuy" name="Page-1">
    <mxGraphModel dx="377" dy="239" grid="1" gridSize="10" guides="1" tooltips="1" connect="1" arrows="1" fold="1" page="1" pageScale="1" pageWidth="827" pageHeight="1169" math="0" shadow="0">
      <root>
        <mxCell id="WIyWlLk6GJQsqaUBKTNV-0" />
        <mxCell id="WIyWlLk6GJQsqaUBKTNV-1" parent="WIyWlLk6GJQsqaUBKTNV-0" />
        <mxCell id="SUPOVtArj2CGsDoX_0Lj-3" style="edgeStyle=orthogonalEdgeStyle;rounded=0;orthogonalLoop=1;jettySize=auto;html=1;exitX=0.5;exitY=1;exitDx=0;exitDy=0;entryX=0.5;entryY=0;entryDx=0;entryDy=0;" edge="1" parent="WIyWlLk6GJQsqaUBKTNV-1" source="WIyWlLk6GJQsqaUBKTNV-3" target="SUPOVtArj2CGsDoX_0Lj-1">
          <mxGeometry relative="1" as="geometry" />
        </mxCell>
        <mxCell id="WIyWlLk6GJQsqaUBKTNV-3" value="&lt;span style=&quot;background-color: rgb(0, 255, 0);&quot;&gt;main()&lt;/span&gt;" style="rounded=1;whiteSpace=wrap;html=1;fontSize=12;glass=0;strokeWidth=1;shadow=0;" parent="WIyWlLk6GJQsqaUBKTNV-1" vertex="1">
          <mxGeometry x="160" y="80" width="120" height="40" as="geometry" />
        </mxCell>
        <mxCell id="SUPOVtArj2CGsDoX_0Lj-6" style="edgeStyle=orthogonalEdgeStyle;rounded=0;orthogonalLoop=1;jettySize=auto;html=1;exitX=0.5;exitY=1;exitDx=0;exitDy=0;entryX=0.5;entryY=0;entryDx=0;entryDy=0;" edge="1" parent="WIyWlLk6GJQsqaUBKTNV-1" source="SUPOVtArj2CGsDoX_0Lj-1" target="SUPOVtArj2CGsDoX_0Lj-5">
          <mxGeometry relative="1" as="geometry" />
        </mxCell>
        <mxCell id="SUPOVtArj2CGsDoX_0Lj-1" value="&lt;span style=&quot;background-color: rgb(0, 255, 0);&quot;&gt;home()&lt;/span&gt;&lt;div&gt;プレイモードの選択&lt;/div&gt;" style="rounded=1;whiteSpace=wrap;html=1;" vertex="1" parent="WIyWlLk6GJQsqaUBKTNV-1">
          <mxGeometry x="160" y="170" width="120" height="60" as="geometry" />
        </mxCell>
        <mxCell id="SUPOVtArj2CGsDoX_0Lj-9" style="edgeStyle=orthogonalEdgeStyle;rounded=0;orthogonalLoop=1;jettySize=auto;html=1;entryX=0.5;entryY=0;entryDx=0;entryDy=0;" edge="1" parent="WIyWlLk6GJQsqaUBKTNV-1" source="SUPOVtArj2CGsDoX_0Lj-5" target="SUPOVtArj2CGsDoX_0Lj-8">
          <mxGeometry relative="1" as="geometry" />
        </mxCell>
        <mxCell id="SUPOVtArj2CGsDoX_0Lj-5" value="&lt;span style=&quot;background-color: rgb(0, 255, 0);&quot;&gt;game()&lt;/span&gt;&lt;br class=&quot;Apple-interchange-newline&quot;&gt;スコアを加算していく" style="rounded=1;whiteSpace=wrap;html=1;" vertex="1" parent="WIyWlLk6GJQsqaUBKTNV-1">
          <mxGeometry x="140" y="280" width="160" height="60" as="geometry" />
        </mxCell>
        <mxCell id="SUPOVtArj2CGsDoX_0Lj-11" style="edgeStyle=orthogonalEdgeStyle;rounded=0;orthogonalLoop=1;jettySize=auto;html=1;exitX=1;exitY=0.5;exitDx=0;exitDy=0;" edge="1" parent="WIyWlLk6GJQsqaUBKTNV-1">
          <mxGeometry relative="1" as="geometry">
            <mxPoint x="220" y="250" as="targetPoint" />
            <mxPoint x="280" y="410" as="sourcePoint" />
            <Array as="points">
              <mxPoint x="280" y="420" />
              <mxPoint x="310" y="420" />
              <mxPoint x="310" y="250" />
            </Array>
          </mxGeometry>
        </mxCell>
        <mxCell id="SUPOVtArj2CGsDoX_0Lj-8" value="&lt;span style=&quot;background-color: rgb(0, 255, 0);&quot;&gt;result()&lt;/span&gt;&lt;div&gt;&lt;br&gt;&lt;/div&gt;" style="rounded=1;whiteSpace=wrap;html=1;" vertex="1" parent="WIyWlLk6GJQsqaUBKTNV-1">
          <mxGeometry x="160" y="390" width="120" height="60" as="geometry" />
        </mxCell>
        <mxCell id="SUPOVtArj2CGsDoX_0Lj-12" style="edgeStyle=orthogonalEdgeStyle;rounded=0;orthogonalLoop=1;jettySize=auto;html=1;entryX=0.5;entryY=0;entryDx=0;entryDy=0;" edge="1" parent="WIyWlLk6GJQsqaUBKTNV-1">
          <mxGeometry relative="1" as="geometry">
            <mxPoint x="219.74" y="450" as="sourcePoint" />
            <mxPoint x="219.74" y="500" as="targetPoint" />
          </mxGeometry>
        </mxCell>
        <mxCell id="SUPOVtArj2CGsDoX_0Lj-13" value="&lt;span style=&quot;background-color: rgb(0, 255, 0);&quot;&gt;end&lt;/span&gt;" style="rounded=1;whiteSpace=wrap;html=1;" vertex="1" parent="WIyWlLk6GJQsqaUBKTNV-1">
          <mxGeometry x="160" y="500" width="120" height="60" as="geometry" />
        </mxCell>
      </root>
    </mxGraphModel>
  </diagram>
</mxfile>
